<mxfile host="Electron" modified="2024-04-10T20:07:38.318Z" agent="Mozilla/5.0 (Windows NT 10.0; Win64; x64) AppleWebKit/537.36 (KHTML, like Gecko) draw.io/24.0.4 Chrome/120.0.6099.109 Electron/28.1.0 Safari/537.36" etag="z6Fj7WsHZyM3OvTTBMKR" version="24.0.4" type="device">
  <diagram id="C5RBs43oDa-KdzZeNtuy" name="Page-1">
    <mxGraphModel dx="819" dy="505" grid="1" gridSize="10" guides="1" tooltips="1" connect="1" arrows="1" fold="1" page="1" pageScale="1" pageWidth="827" pageHeight="1169" math="0" shadow="0">
      <root>
        <mxCell id="WIyWlLk6GJQsqaUBKTNV-0" />
        <mxCell id="WIyWlLk6GJQsqaUBKTNV-1" parent="WIyWlLk6GJQsqaUBKTNV-0" />
        <mxCell id="p1ztXYtbptPn4bYkiiDL-0" style="edgeStyle=orthogonalEdgeStyle;rounded=0;orthogonalLoop=1;jettySize=auto;html=1;entryX=0.5;entryY=0;entryDx=0;entryDy=0;" edge="1" parent="WIyWlLk6GJQsqaUBKTNV-1" source="r9Q4WL9SlzlpgeBUxEG_-0" target="r9Q4WL9SlzlpgeBUxEG_-1">
          <mxGeometry relative="1" as="geometry" />
        </mxCell>
        <mxCell id="r9Q4WL9SlzlpgeBUxEG_-0" value="Начало" style="ellipse;whiteSpace=wrap;html=1;" parent="WIyWlLk6GJQsqaUBKTNV-1" vertex="1">
          <mxGeometry x="160" y="20" width="120" height="40" as="geometry" />
        </mxCell>
        <mxCell id="r9Q4WL9SlzlpgeBUxEG_-1" value="n&lt;div&gt;detA = Определитель&lt;/div&gt;&lt;div&gt;Решение = Массив&lt;/div&gt;" style="rounded=1;whiteSpace=wrap;html=1;fontSize=12;glass=0;strokeWidth=1;shadow=0;" parent="WIyWlLk6GJQsqaUBKTNV-1" vertex="1">
          <mxGeometry x="150" y="80" width="140" height="50" as="geometry" />
        </mxCell>
        <mxCell id="r9Q4WL9SlzlpgeBUxEG_-2" value="Конец" style="ellipse;whiteSpace=wrap;html=1;" parent="WIyWlLk6GJQsqaUBKTNV-1" vertex="1">
          <mxGeometry x="350" y="165" width="120" height="40" as="geometry" />
        </mxCell>
        <mxCell id="p1ztXYtbptPn4bYkiiDL-3" value="Да" style="edgeStyle=orthogonalEdgeStyle;rounded=0;orthogonalLoop=1;jettySize=auto;html=1;" edge="1" parent="WIyWlLk6GJQsqaUBKTNV-1" source="p1ztXYtbptPn4bYkiiDL-1" target="r9Q4WL9SlzlpgeBUxEG_-2">
          <mxGeometry relative="1" as="geometry" />
        </mxCell>
        <mxCell id="p1ztXYtbptPn4bYkiiDL-6" value="Нет" style="edgeStyle=orthogonalEdgeStyle;rounded=0;orthogonalLoop=1;jettySize=auto;html=1;" edge="1" parent="WIyWlLk6GJQsqaUBKTNV-1" source="p1ztXYtbptPn4bYkiiDL-1" target="p1ztXYtbptPn4bYkiiDL-5">
          <mxGeometry relative="1" as="geometry" />
        </mxCell>
        <mxCell id="p1ztXYtbptPn4bYkiiDL-1" value="Определитель = 0?" style="rhombus;whiteSpace=wrap;html=1;" vertex="1" parent="WIyWlLk6GJQsqaUBKTNV-1">
          <mxGeometry x="150" y="150" width="140" height="70" as="geometry" />
        </mxCell>
        <mxCell id="p1ztXYtbptPn4bYkiiDL-4" style="edgeStyle=orthogonalEdgeStyle;rounded=0;orthogonalLoop=1;jettySize=auto;html=1;entryX=0.5;entryY=0;entryDx=0;entryDy=0;" edge="1" parent="WIyWlLk6GJQsqaUBKTNV-1" source="r9Q4WL9SlzlpgeBUxEG_-1" target="p1ztXYtbptPn4bYkiiDL-1">
          <mxGeometry relative="1" as="geometry" />
        </mxCell>
        <mxCell id="p1ztXYtbptPn4bYkiiDL-9" style="edgeStyle=orthogonalEdgeStyle;rounded=0;orthogonalLoop=1;jettySize=auto;html=1;" edge="1" parent="WIyWlLk6GJQsqaUBKTNV-1" source="p1ztXYtbptPn4bYkiiDL-5" target="p1ztXYtbptPn4bYkiiDL-7">
          <mxGeometry relative="1" as="geometry" />
        </mxCell>
        <mxCell id="p1ztXYtbptPn4bYkiiDL-5" value="i = 0" style="rounded=1;whiteSpace=wrap;html=1;fontSize=12;glass=0;strokeWidth=1;shadow=0;" vertex="1" parent="WIyWlLk6GJQsqaUBKTNV-1">
          <mxGeometry x="150" y="260" width="140" height="40" as="geometry" />
        </mxCell>
        <mxCell id="p1ztXYtbptPn4bYkiiDL-10" style="edgeStyle=orthogonalEdgeStyle;rounded=0;orthogonalLoop=1;jettySize=auto;html=1;entryX=0.5;entryY=0;entryDx=0;entryDy=0;" edge="1" parent="WIyWlLk6GJQsqaUBKTNV-1" source="p1ztXYtbptPn4bYkiiDL-7" target="p1ztXYtbptPn4bYkiiDL-8">
          <mxGeometry relative="1" as="geometry" />
        </mxCell>
        <mxCell id="p1ztXYtbptPn4bYkiiDL-7" value="Клонировать матрицу в temp&lt;div&gt;j = 0&lt;/div&gt;" style="rounded=1;whiteSpace=wrap;html=1;fontSize=12;glass=0;strokeWidth=1;shadow=0;" vertex="1" parent="WIyWlLk6GJQsqaUBKTNV-1">
          <mxGeometry x="150" y="320" width="140" height="50" as="geometry" />
        </mxCell>
        <mxCell id="p1ztXYtbptPn4bYkiiDL-12" style="edgeStyle=orthogonalEdgeStyle;rounded=0;orthogonalLoop=1;jettySize=auto;html=1;entryX=0.5;entryY=0;entryDx=0;entryDy=0;" edge="1" parent="WIyWlLk6GJQsqaUBKTNV-1" source="p1ztXYtbptPn4bYkiiDL-8" target="p1ztXYtbptPn4bYkiiDL-11">
          <mxGeometry relative="1" as="geometry" />
        </mxCell>
        <mxCell id="p1ztXYtbptPn4bYkiiDL-8" value="temp[i, j] = Вектор[j]" style="rounded=1;whiteSpace=wrap;html=1;fontSize=12;glass=0;strokeWidth=1;shadow=0;" vertex="1" parent="WIyWlLk6GJQsqaUBKTNV-1">
          <mxGeometry x="150" y="390" width="140" height="40" as="geometry" />
        </mxCell>
        <mxCell id="p1ztXYtbptPn4bYkiiDL-15" value="Да" style="edgeStyle=orthogonalEdgeStyle;rounded=0;orthogonalLoop=1;jettySize=auto;html=1;entryX=0;entryY=0.5;entryDx=0;entryDy=0;" edge="1" parent="WIyWlLk6GJQsqaUBKTNV-1" source="p1ztXYtbptPn4bYkiiDL-11" target="p1ztXYtbptPn4bYkiiDL-13">
          <mxGeometry relative="1" as="geometry" />
        </mxCell>
        <mxCell id="p1ztXYtbptPn4bYkiiDL-18" value="Нет" style="edgeStyle=orthogonalEdgeStyle;rounded=0;orthogonalLoop=1;jettySize=auto;html=1;" edge="1" parent="WIyWlLk6GJQsqaUBKTNV-1" source="p1ztXYtbptPn4bYkiiDL-11" target="p1ztXYtbptPn4bYkiiDL-16">
          <mxGeometry relative="1" as="geometry" />
        </mxCell>
        <mxCell id="p1ztXYtbptPn4bYkiiDL-11" value="j &amp;lt; n" style="rhombus;whiteSpace=wrap;html=1;" vertex="1" parent="WIyWlLk6GJQsqaUBKTNV-1">
          <mxGeometry x="150" y="450" width="140" height="70" as="geometry" />
        </mxCell>
        <mxCell id="p1ztXYtbptPn4bYkiiDL-14" style="edgeStyle=orthogonalEdgeStyle;rounded=0;orthogonalLoop=1;jettySize=auto;html=1;entryX=1;entryY=0.5;entryDx=0;entryDy=0;" edge="1" parent="WIyWlLk6GJQsqaUBKTNV-1" source="p1ztXYtbptPn4bYkiiDL-13" target="p1ztXYtbptPn4bYkiiDL-8">
          <mxGeometry relative="1" as="geometry">
            <Array as="points">
              <mxPoint x="400" y="410" />
            </Array>
          </mxGeometry>
        </mxCell>
        <mxCell id="p1ztXYtbptPn4bYkiiDL-13" value="j++" style="rounded=1;whiteSpace=wrap;html=1;fontSize=12;glass=0;strokeWidth=1;shadow=0;" vertex="1" parent="WIyWlLk6GJQsqaUBKTNV-1">
          <mxGeometry x="330" y="465" width="140" height="40" as="geometry" />
        </mxCell>
        <mxCell id="p1ztXYtbptPn4bYkiiDL-22" style="edgeStyle=orthogonalEdgeStyle;rounded=0;orthogonalLoop=1;jettySize=auto;html=1;entryX=0;entryY=0.5;entryDx=0;entryDy=0;" edge="1" parent="WIyWlLk6GJQsqaUBKTNV-1" source="p1ztXYtbptPn4bYkiiDL-16" target="p1ztXYtbptPn4bYkiiDL-19">
          <mxGeometry relative="1" as="geometry" />
        </mxCell>
        <mxCell id="p1ztXYtbptPn4bYkiiDL-16" value="det = Определитель(temp)&lt;div&gt;Решение[i] = det / detA&lt;/div&gt;" style="rounded=1;whiteSpace=wrap;html=1;fontSize=12;glass=0;strokeWidth=1;shadow=0;" vertex="1" parent="WIyWlLk6GJQsqaUBKTNV-1">
          <mxGeometry x="145" y="545" width="150" height="55" as="geometry" />
        </mxCell>
        <mxCell id="p1ztXYtbptPn4bYkiiDL-21" value="Да" style="edgeStyle=orthogonalEdgeStyle;rounded=0;orthogonalLoop=1;jettySize=auto;html=1;entryX=0;entryY=0.5;entryDx=0;entryDy=0;" edge="1" parent="WIyWlLk6GJQsqaUBKTNV-1" source="p1ztXYtbptPn4bYkiiDL-19" target="p1ztXYtbptPn4bYkiiDL-20">
          <mxGeometry relative="1" as="geometry" />
        </mxCell>
        <mxCell id="p1ztXYtbptPn4bYkiiDL-25" value="Нет" style="edgeStyle=orthogonalEdgeStyle;rounded=0;orthogonalLoop=1;jettySize=auto;html=1;entryX=0.5;entryY=0;entryDx=0;entryDy=0;" edge="1" parent="WIyWlLk6GJQsqaUBKTNV-1" source="p1ztXYtbptPn4bYkiiDL-19" target="p1ztXYtbptPn4bYkiiDL-24">
          <mxGeometry relative="1" as="geometry" />
        </mxCell>
        <mxCell id="p1ztXYtbptPn4bYkiiDL-19" value="i &amp;lt; n" style="rhombus;whiteSpace=wrap;html=1;" vertex="1" parent="WIyWlLk6GJQsqaUBKTNV-1">
          <mxGeometry x="330" y="537.5" width="140" height="70" as="geometry" />
        </mxCell>
        <mxCell id="p1ztXYtbptPn4bYkiiDL-23" style="edgeStyle=orthogonalEdgeStyle;rounded=0;orthogonalLoop=1;jettySize=auto;html=1;entryX=1;entryY=0.5;entryDx=0;entryDy=0;" edge="1" parent="WIyWlLk6GJQsqaUBKTNV-1" source="p1ztXYtbptPn4bYkiiDL-20" target="p1ztXYtbptPn4bYkiiDL-7">
          <mxGeometry relative="1" as="geometry">
            <Array as="points">
              <mxPoint x="580" y="345" />
            </Array>
          </mxGeometry>
        </mxCell>
        <mxCell id="p1ztXYtbptPn4bYkiiDL-20" value="i++" style="rounded=1;whiteSpace=wrap;html=1;fontSize=12;glass=0;strokeWidth=1;shadow=0;" vertex="1" parent="WIyWlLk6GJQsqaUBKTNV-1">
          <mxGeometry x="510" y="552.5" width="140" height="40" as="geometry" />
        </mxCell>
        <mxCell id="p1ztXYtbptPn4bYkiiDL-24" value="Конец" style="ellipse;whiteSpace=wrap;html=1;" vertex="1" parent="WIyWlLk6GJQsqaUBKTNV-1">
          <mxGeometry x="340" y="650" width="120" height="40" as="geometry" />
        </mxCell>
      </root>
    </mxGraphModel>
  </diagram>
</mxfile>
